<svg xmlns="http://www.w3.org/2000/svg" xmlns:xlink="http://www.w3.org/1999/xlink" width="47" height="43" viewBox="0 0 47 43">
  <defs>
    <clipPath id="clip-path">
      <rect id="Ret칙ngulo_6" data-name="Ret칙ngulo 6" width="47" height="43" transform="translate(461 912)" fill="#fff" stroke="#707070" stroke-width="1"/>
    </clipPath>
  </defs>
  <g id="Grupo_de_m치scara_3" data-name="Grupo de m치scara 3" transform="translate(-461 -912)" clip-path="url(#clip-path)">
    <g id="instagram" transform="translate(463 912)">
      <path id="Caminho_3" data-name="Caminho 3" d="M25.615,21.5A4.115,4.115,0,1,1,21.5,17.385,4.115,4.115,0,0,1,25.615,21.5Zm0,0" fill="#fff"/>
      <path id="Caminho_4" data-name="Caminho 4" d="M31.124,14.219a4.088,4.088,0,0,0-2.343-2.343,6.831,6.831,0,0,0-2.292-.425c-1.3-.059-1.692-.072-4.989-.072s-3.687.012-4.989.072a6.835,6.835,0,0,0-2.292.425,4.09,4.09,0,0,0-2.343,2.343,6.833,6.833,0,0,0-.425,2.293c-.059,1.3-.072,1.692-.072,4.989s.013,3.687.072,4.989a6.831,6.831,0,0,0,.425,2.292,4.088,4.088,0,0,0,2.343,2.343,6.822,6.822,0,0,0,2.293.425c1.3.059,1.692.072,4.989.072s3.687-.012,4.989-.072a6.822,6.822,0,0,0,2.293-.425,4.088,4.088,0,0,0,2.343-2.343,6.837,6.837,0,0,0,.425-2.292c.059-1.3.072-1.692.072-4.989s-.012-3.687-.072-4.989a6.822,6.822,0,0,0-.425-2.293ZM21.5,27.84a6.34,6.34,0,1,1,6.34-6.34A6.34,6.34,0,0,1,21.5,27.84Zm6.59-11.448a1.482,1.482,0,1,1,1.482-1.482A1.482,1.482,0,0,1,28.09,16.391Zm0,0" fill="#fff"/>
      <path id="Caminho_5" data-name="Caminho 5" d="M21.5,0A21.5,21.5,0,1,0,43,21.5,21.5,21.5,0,0,0,21.5,0ZM33.771,26.59a9.058,9.058,0,0,1-.574,3A6.313,6.313,0,0,1,29.587,33.2a9.064,9.064,0,0,1-3,.574c-1.317.06-1.737.074-5.09.074s-3.773-.014-5.09-.074a9.064,9.064,0,0,1-3-.574A6.313,6.313,0,0,1,9.8,29.587a9.056,9.056,0,0,1-.574-3c-.061-1.317-.075-1.737-.075-5.09s.014-3.773.074-5.09a9.059,9.059,0,0,1,.573-3A6.317,6.317,0,0,1,13.413,9.8a9.066,9.066,0,0,1,3-.574c1.317-.06,1.737-.074,5.09-.074s3.773.014,5.09.075a9.068,9.068,0,0,1,3,.573A6.314,6.314,0,0,1,33.2,13.413a9.057,9.057,0,0,1,.574,3c.06,1.317.074,1.737.074,5.09S33.832,25.273,33.771,26.59Zm0,0" fill="#fff"/>
    </g>
  </g>
</svg>
