<svg xmlns="http://www.w3.org/2000/svg" xmlns:xlink="http://www.w3.org/1999/xlink" width="43" height="43" viewBox="0 0 43 43">
  <defs>
    <clipPath id="clip-path">
      <rect id="Ret칙ngulo_7" data-name="Ret칙ngulo 7" width="43" height="43" transform="translate(785.563 912)" fill="#fff" stroke="#707070" stroke-width="1"/>
    </clipPath>
  </defs>
  <g id="Grupo_de_m치scara_4" data-name="Grupo de m치scara 4" transform="translate(-785.563 -912)" clip-path="url(#clip-path)">
    <g id="placa-de-telefone" transform="translate(786.897 912)">
      <path id="Caminho_6" data-name="Caminho 6" d="M26.214,15.536A5.576,5.576,0,0,1,25,11.773,5.473,5.473,0,0,1,26.514,8.15l5.239-5.358A4.392,4.392,0,0,1,34.9,1.425a4.467,4.467,0,0,1,3.448,1.7l.524.644a2.716,2.716,0,0,1,.207.3L26.985,16.436a2.515,2.515,0,0,1-.246-.257ZM1.743,41.742A2.5,2.5,0,0,0,1.989,42L14.083,29.631a2.69,2.69,0,0,0-.207-.3l-.524-.643a4.468,4.468,0,0,0-3.448-1.7,4.391,4.391,0,0,0-3.146,1.367L1.518,33.713a5.686,5.686,0,0,0-.3,7.386ZM39.432,6.832,29.408,17.083a6.4,6.4,0,0,0,2.048,1.3A28.368,28.368,0,0,1,25.3,28.433a27.545,27.545,0,0,1-9.9,6.317,7.784,7.784,0,0,0-.959-2.357L4.413,42.644a6.3,6.3,0,0,0,3.213,1.627l.008,0s.048.01.153.026l.026,0a12.719,12.719,0,0,0,1.867.122h0c4.016,0,12.082-1.36,20.987-10.466C42.316,22.045,40.81,11.714,40.583,10.5A7.968,7.968,0,0,0,39.432,6.832Z" transform="translate(0 -1.425)" fill="#fff"/>
    </g>
  </g>
</svg>
